<svg width="186" height="48" viewBox="0 0 186 48" fill="none" xmlns="http://www.w3.org/2000/svg">
<path d="M50.5935 11.8589L55.8703 7.28002C56.5778 6.69716 57.3049 6.40573 58.0517 6.40573C58.8772 6.40573 59.5896 6.70704 60.189 7.30966C60.7982 7.91227 61.1029 8.55935 61.1029 9.25088V16.8676C61.1029 18.3099 60.4887 19.5547 59.2604 20.6018L57.5948 22.0392L58.2286 23.61H59.8942C60.2381 23.61 60.528 23.7335 60.7638 23.9804C61.0095 24.2175 61.1323 24.509 61.1323 24.8547C61.1323 25.2005 61.0095 25.4969 60.7638 25.7438C60.528 25.9809 60.2381 26.0995 59.8942 26.0995H56.5041L55.605 23.7582L53.9099 25.1659C53.1631 25.7883 52.4114 26.0995 51.6547 26.0995C50.79 26.0995 50.0629 25.8031 49.4733 25.2104C48.8935 24.6078 48.6036 23.8816 48.6036 23.0321V16.0822C48.6036 15.2128 48.7363 14.467 49.0016 13.8446C49.2669 13.2123 49.7976 12.5505 50.5935 11.8589ZM57.5064 9.10269L52.2296 13.6816C51.7677 14.0866 51.4582 14.4719 51.301 14.8374C51.1536 15.203 51.0799 15.7216 51.0799 16.3934V22.8839C51.0799 23.3976 51.2764 23.6544 51.6695 23.6544C51.8267 23.6544 51.979 23.5902 52.1264 23.4618L54.6322 21.2983L53.8215 19.12C53.7036 18.8335 53.6446 18.5865 53.6446 18.3791C53.6446 18.0728 53.7674 17.8011 54.0131 17.564C54.2587 17.3171 54.5486 17.1936 54.8827 17.1936C55.4625 17.1936 55.8457 17.4307 56.0324 17.9049L56.6662 19.5794C57.3835 19.0163 57.8847 18.5519 58.1697 18.1864C58.4546 17.811 58.5971 17.3714 58.5971 16.8676V9.53243C58.5971 9.11751 58.4104 8.91005 58.037 8.91005C57.8307 8.91005 57.6538 8.97427 57.5064 9.10269Z" fill="#303030"/>
<path d="M72.7619 23.5803L76.9332 20.913V13.0444C76.9332 12.6986 77.0511 12.4023 77.287 12.1553C77.5326 11.8984 77.8274 11.77 78.1713 11.77C78.5153 11.77 78.8052 11.8984 79.041 12.1553C79.2866 12.4023 79.4095 12.6986 79.4095 13.0444V24.8547C79.4095 25.1906 79.2866 25.482 79.041 25.729C78.7953 25.976 78.5054 26.0995 78.1713 26.0995C77.8372 26.0995 77.5474 25.976 77.3017 25.729C77.056 25.482 76.9332 25.1906 76.9332 24.8547V23.8767L74.7812 25.2845C73.9361 25.8278 73.0813 26.0995 72.2165 26.0995H71.0668C70.0547 26.0995 69.1851 25.7438 68.4579 25.0326C67.7308 24.3213 67.3426 23.4519 67.2935 22.4245L66.9397 13.0444C66.9201 12.7184 67.0331 12.4319 67.2788 12.1849C67.5342 11.9281 67.834 11.7997 68.1779 11.7997C68.512 11.7997 68.7969 11.9231 69.0328 12.1701C69.2784 12.4171 69.4062 12.7085 69.416 13.0444L69.7403 22.2467C69.7698 23.1358 70.2758 23.5803 71.2585 23.5803H72.7619Z" fill="#303030"/>
<path d="M88.8134 17.1195H93.6627C93.928 17.1195 94.3112 17.1788 94.8124 17.2973L94.7829 15.5339C94.7829 15.1881 94.6601 14.8967 94.4144 14.6596C94.1786 14.4126 93.8887 14.2892 93.5448 14.2892H88.8428C88.5087 14.2892 88.2189 14.1657 87.9732 13.9187C87.7275 13.6717 87.6047 13.3803 87.6047 13.0444C87.6047 12.6986 87.7226 12.4072 87.9585 12.1701C88.2041 11.9231 88.4989 11.7997 88.8428 11.7997H93.5448C94.5667 11.7997 95.4364 12.1602 96.1537 12.8814C96.8808 13.6026 97.2592 14.4867 97.2887 15.5339L97.5982 24.8547C97.5982 25.2005 97.4753 25.4969 97.2297 25.7438C96.984 25.9809 96.6941 26.0995 96.36 26.0995C96.0063 26.0995 95.7066 25.9809 95.4609 25.7438C95.2153 25.4969 95.0924 25.2005 95.0924 24.8547L92.9994 26.0995H88.8134C87.7718 26.0995 86.8874 25.734 86.1602 25.0029C85.4331 24.2719 85.0695 23.3828 85.0695 22.3356V20.8834C85.0695 19.8461 85.4331 18.9619 86.1602 18.2309C86.8972 17.4899 87.7816 17.1195 88.8134 17.1195ZM95.004 21.9651L94.9303 20.913C94.9205 20.5574 94.7977 20.261 94.5618 20.0239C94.326 19.7868 94.0361 19.6683 93.6922 19.6683H88.8134C88.4694 19.6683 88.1746 19.7917 87.929 20.0387C87.6931 20.2758 87.5752 20.5673 87.5752 20.913V22.306C87.5752 22.6418 87.6981 22.9333 87.9437 23.1802C88.1894 23.4272 88.4793 23.5507 88.8134 23.5507H92.3067L95.004 21.9651Z" fill="#303030"/>
<path d="M109.228 14.6893L105.852 16.8972V24.8547C105.852 25.1906 105.73 25.482 105.484 25.729C105.238 25.976 104.948 26.0995 104.614 26.0995C104.28 26.0995 103.99 25.976 103.745 25.729C103.499 25.482 103.376 25.1906 103.376 24.8547V13.0444C103.376 12.6986 103.494 12.4023 103.73 12.1553C103.976 11.8984 104.27 11.77 104.614 11.77C104.948 11.77 105.238 11.8984 105.484 12.1553C105.73 12.4023 105.852 12.6986 105.852 13.0444V13.8742L108.108 12.4961C108.864 12.0121 109.719 11.77 110.672 11.77H111.822C112.805 11.77 113.655 12.1207 114.372 12.8221C115.089 13.5235 115.468 14.3879 115.507 15.4154L115.846 24.8547C115.856 25.1906 115.738 25.482 115.492 25.729C115.246 25.976 114.952 26.0995 114.608 26.0995C114.283 26.0995 113.998 25.9908 113.753 25.7735C113.507 25.5463 113.379 25.24 113.37 24.8547L113.001 15.5635C112.972 14.6942 112.52 14.2595 111.645 14.2595H110.436C110.063 14.2595 109.66 14.4028 109.228 14.6893Z" fill="#303030"/>
<path d="M130.32 26.0995H127.844C126.822 26.0995 125.942 25.734 125.206 25.0029C124.469 24.2719 124.1 23.3926 124.1 22.3652V14.2892H122.832C122.489 14.2892 122.194 14.1706 121.948 13.9335C121.712 13.6964 121.594 13.4 121.594 13.0444C121.594 12.6986 121.712 12.4072 121.948 12.1701C122.194 11.9231 122.489 11.7997 122.832 11.7997H124.13V8.74705C124.13 8.40128 124.247 8.10985 124.483 7.87276C124.729 7.62578 125.024 7.5023 125.368 7.5023C125.692 7.5023 125.977 7.62578 126.223 7.87276C126.478 8.11973 126.606 8.41116 126.606 8.74705V11.7997H131.588C131.922 11.7997 132.212 11.9231 132.457 12.1701C132.703 12.4171 132.826 12.7085 132.826 13.0444C132.826 13.3902 132.703 13.6865 132.457 13.9335C132.212 14.1706 131.922 14.2892 131.588 14.2892H126.576V22.3652C126.576 22.7011 126.699 22.9925 126.945 23.2395C127.2 23.4865 127.5 23.61 127.844 23.61H130.261C130.92 23.61 131.357 23.2543 131.573 22.543C131.789 21.8219 132.207 21.4613 132.826 21.4613C133.189 21.4613 133.484 21.5848 133.71 21.8318C133.946 22.0689 134.064 22.3702 134.064 22.7357C134.064 23.4865 133.71 24.2373 133.003 24.9881C132.305 25.729 131.411 26.0995 130.32 26.0995Z" fill="#303030"/>
<path d="M143.556 17.1195H148.406C148.671 17.1195 149.054 17.1788 149.555 17.2973L149.526 15.5339C149.526 15.1881 149.403 14.8967 149.157 14.6596C148.922 14.4126 148.632 14.2892 148.288 14.2892H143.586C143.252 14.2892 142.962 14.1657 142.716 13.9187C142.471 13.6717 142.348 13.3803 142.348 13.0444C142.348 12.6986 142.466 12.4072 142.701 12.1701C142.947 11.9231 143.242 11.7997 143.586 11.7997H148.288C149.31 11.7997 150.179 12.1602 150.897 12.8814C151.624 13.6026 152.002 14.4867 152.032 15.5339L152.341 24.8547C152.341 25.2005 152.218 25.4969 151.973 25.7438C151.727 25.9809 151.437 26.0995 151.103 26.0995C150.749 26.0995 150.45 25.9809 150.204 25.7438C149.958 25.4969 149.835 25.2005 149.835 24.8547L147.742 26.0995H143.556C142.515 26.0995 141.63 25.734 140.903 25.0029C140.176 24.2719 139.812 23.3828 139.812 22.3356V20.8834C139.812 19.8461 140.176 18.9619 140.903 18.2309C141.64 17.4899 142.525 17.1195 143.556 17.1195ZM149.747 21.9651L149.673 20.913C149.663 20.5574 149.541 20.261 149.305 20.0239C149.069 19.7868 148.779 19.6683 148.435 19.6683H143.556C143.212 19.6683 142.918 19.7917 142.672 20.0387C142.436 20.2758 142.318 20.5673 142.318 20.913V22.306C142.318 22.6418 142.441 22.9333 142.687 23.1802C142.932 23.4272 143.222 23.5507 143.556 23.5507H147.05L149.747 21.9651Z" fill="#303030"/>
<path d="M88.4496 32.7927C88.4873 32.9966 88.5062 33.146 88.5062 33.2408C88.5062 33.3499 88.4779 33.4352 88.4213 33.4969C88.4118 33.5063 88.3199 33.5775 88.1454 33.7102C88.0039 33.8193 87.7963 33.8383 87.5228 33.7672C86.6502 33.5443 85.6549 33.3404 84.5371 33.1554C84.2164 34.4642 83.9805 35.4505 83.8296 36.1144C84.3484 36.0717 85.2375 36.0172 86.4969 35.9508C86.761 35.9461 86.9379 36.0338 87.0275 36.214C87.0417 36.2424 87.0817 36.4037 87.1478 36.6977C87.1525 36.7356 87.1549 36.7688 87.1549 36.7972C87.1549 36.9585 86.9685 37.0699 86.5959 37.1315C86.1997 37.2027 85.9733 37.1813 85.9167 37.0675C85.8507 36.9253 85.7233 36.8541 85.5347 36.8541C84.4876 36.8541 83.8461 36.8755 83.6103 36.9182L83.0443 38.6893C82.8792 39.1729 82.733 39.5096 82.6056 39.6993C82.483 39.8842 82.2825 40.0739 82.0042 40.2683C82.1693 40.2588 82.3486 40.2541 82.5419 40.2541C83.3202 40.2541 84.6078 40.3347 86.4049 40.4959C86.5511 40.5102 86.6384 40.439 86.6667 40.2825C86.6997 40.1213 86.7492 40.0383 86.8153 40.0336C86.9426 40.0241 87.0228 40.0763 87.0558 40.1901C87.103 40.394 87.1666 40.6666 87.2468 41.0081C87.2704 41.1029 87.228 41.2001 87.1195 41.2997C87.0157 41.3803 86.9167 41.4609 86.8223 41.5415C86.728 41.6221 86.6431 41.6601 86.5676 41.6553C86.5488 41.6506 86.412 41.615 86.1573 41.5486C85.1432 41.2736 84.0065 41.1361 82.7471 41.1361C82.233 41.1361 81.6811 41.1574 81.0916 41.2001C80.6954 41.5463 80.4477 41.7193 80.3487 41.7193C80.2685 41.7193 80.2166 41.6577 80.193 41.5344C80.1034 41.0887 80.0586 40.8397 80.0586 40.7876C80.0586 40.6074 80.16 40.4864 80.3628 40.4248C80.5468 40.3679 80.9571 40.3252 81.5939 40.2968C82.0891 39.3768 82.4712 38.4688 82.74 37.5725C82.7117 37.4872 82.6386 37.3165 82.5207 37.0604C82.45 36.8897 82.4146 36.7664 82.4146 36.6905C82.4146 36.5103 82.5962 36.3752 82.9594 36.2851C83.0301 36.2661 83.1079 36.2472 83.1928 36.2282C83.4098 35.3936 83.6787 34.3267 83.9994 33.0274C83.3249 32.9089 82.8249 32.8496 82.4995 32.8496C82.2825 32.8496 82.0632 32.8638 81.8415 32.8923C81.3227 32.9681 81.0633 33.3167 81.0633 33.9379C81.0633 34.2176 81.1151 34.5638 81.2189 34.9763C81.2661 35.1613 81.226 35.2537 81.0986 35.2537C81.009 35.2537 80.9477 35.1968 80.9147 35.083C80.7166 34.4286 80.6175 33.8786 80.6175 33.4328C80.6175 33.1151 80.6647 32.8093 80.759 32.5153C80.8958 32.079 81.3038 31.8609 81.983 31.8609C82.483 31.8609 83.2329 31.9581 84.2329 32.1525C84.4781 31.9723 84.6479 31.8822 84.7423 31.8822C84.8083 31.8822 84.8413 31.9249 84.8413 32.0103C84.8413 32.0719 84.8225 32.1573 84.7847 32.2663C84.9734 32.3232 85.9049 32.5414 87.5794 32.9207C87.7963 32.9729 87.9661 32.8923 88.0888 32.6789C88.1406 32.603 88.1996 32.5651 88.2656 32.5651C88.36 32.5651 88.4213 32.6409 88.4496 32.7927Z" fill="#303030"/>
<path d="M92.8007 36.5198C92.6215 36.7427 92.2064 37.16 91.5555 37.7717C90.9282 38.3597 90.5721 38.7106 90.4872 38.8244C90.6051 39.3176 90.7891 39.953 91.039 40.7306C91.1287 40.9346 91.2301 41.0365 91.3433 41.0365C91.414 41.0365 91.539 40.9701 91.7182 40.8373C91.7654 40.7994 91.8149 40.7804 91.8668 40.7804C91.9564 40.7804 92.0012 40.8231 92.0012 40.9085C92.0012 40.9511 91.9847 40.9938 91.9517 41.0365C91.5367 41.5107 91.2112 41.7644 90.9754 41.7976C90.7112 41.8308 90.5131 41.6743 90.3811 41.3281C90.183 40.8018 89.9919 40.1664 89.808 39.4219C88.0298 41.3044 87.1148 42.7033 87.0629 43.6185C87.0534 43.8793 87.0935 44.0832 87.1832 44.2302C87.2916 44.4009 87.2822 44.4862 87.1549 44.4862C87.103 44.4862 87.0487 44.453 86.9921 44.3867C86.7846 44.1448 86.6525 43.9646 86.5959 43.8461C86.5063 43.6706 86.4639 43.4478 86.4686 43.1775C86.478 42.7886 86.8105 42.1722 87.4661 41.3281C88.0652 40.5505 88.7963 39.7538 89.6594 38.9382C89.367 37.767 89.1217 37.0438 88.9236 36.7688C88.834 36.6502 88.7538 36.591 88.6831 36.591C88.6123 36.591 88.5085 36.6408 88.3718 36.7403C88.3152 36.7783 88.2633 36.7972 88.2161 36.7972C88.1454 36.7972 88.11 36.7688 88.11 36.7119C88.11 36.6502 88.1524 36.5862 88.2373 36.5198C88.6665 36.2069 88.9873 35.9982 89.1995 35.8939C89.3552 35.818 89.4542 35.7801 89.4967 35.7801C89.5957 35.7801 89.6736 35.8631 89.7302 36.029C89.8103 36.2519 90.0226 36.9893 90.3669 38.2411C91.0791 37.5061 91.5579 36.9869 91.8031 36.6834C92.2182 36.1713 92.4352 35.7635 92.454 35.46C92.4635 35.2988 92.4446 35.1613 92.3975 35.0475C92.3456 34.9289 92.3644 34.8696 92.454 34.8696C92.4871 34.8696 92.5224 34.891 92.5602 34.9337C92.8951 35.351 93.0625 35.6758 93.0625 35.9081C93.0625 36.1073 92.9752 36.3112 92.8007 36.5198Z" fill="#303030"/>
<path d="M98.3122 37.1956C98.2556 37.9969 98.0457 38.8576 97.6825 39.7775C97.3429 40.6358 97.008 41.2214 96.6778 41.5344C96.4892 41.7099 96.2981 41.7976 96.1048 41.7976C95.8878 41.7976 95.527 41.6221 95.0223 41.2712C94.9232 41.2048 94.8737 41.1361 94.8737 41.065C94.8737 40.9749 94.9374 40.9298 95.0647 40.9298C95.1166 40.9298 95.1921 40.9464 95.2911 40.9796C95.3902 41.0128 95.4704 41.0294 95.5317 41.0294C95.876 41.0294 96.1849 40.8089 96.4585 40.3679C96.6896 39.9885 96.909 39.4788 97.1165 38.8386C97.3665 38.042 97.475 37.3568 97.4419 36.783C97.4278 36.508 97.3358 36.3705 97.166 36.3705C97.0151 36.3705 96.8311 36.4748 96.6142 36.6834C95.086 38.1534 94.0106 39.9103 93.388 41.9541C93.0342 43.1158 92.7984 44.1922 92.6804 45.1833C92.6757 45.2165 92.6121 46.0392 92.4894 47.6515C92.4706 47.8838 92.414 48 92.3196 48C92.2206 48 92.0437 47.8838 91.789 47.6515C91.605 47.4808 91.5343 47.2721 91.5767 47.0255C91.7843 44.6641 92.3526 42.0347 93.2818 39.1374C94.0129 36.8707 94.5931 35.4007 95.0223 34.7274C95.277 34.3338 95.5034 34.1418 95.7015 34.1512C95.8996 34.156 96.2769 34.3338 96.8335 34.6847C96.909 34.7321 96.9467 34.7819 96.9467 34.8341C96.9467 34.9052 96.8901 34.9408 96.7769 34.9408C96.7486 34.9408 96.7014 34.936 96.6354 34.9266C96.5694 34.9123 96.5198 34.9052 96.4868 34.9052C96.1897 34.9052 95.8807 35.1589 95.56 35.6663C95.3713 35.9555 95.1331 36.4416 94.8454 37.1244C94.5577 37.8073 94.3502 38.3692 94.2228 38.8102C94.9162 37.6721 95.7227 36.6953 96.6425 35.8797C96.784 35.7564 96.9113 35.6947 97.0245 35.6947C97.0764 35.6947 97.2061 35.7659 97.4136 35.9081C98.0551 36.1357 98.3546 36.5649 98.3122 37.1956Z" fill="#303030"/>
<path d="M104.503 30.5379C104.564 30.5853 104.595 30.6351 104.595 30.6873C104.595 30.7774 104.541 30.8224 104.432 30.8224C104.385 30.8224 104.335 30.8082 104.283 30.7797C104.067 30.6707 103.904 30.6162 103.795 30.6162C103.498 30.6162 103.173 30.9054 102.819 31.4839C101.536 33.5846 100.623 36.2993 100.081 39.6282C100.067 39.7183 100.043 39.8392 100.01 39.9909C100.119 39.8771 100.279 39.6922 100.491 39.4361C100.614 39.2891 100.704 39.2156 100.76 39.2156C100.883 39.2156 100.892 39.2891 100.788 39.4361C100.336 40.0857 100.036 40.7662 99.8899 41.4775C99.838 41.653 99.772 41.7407 99.6918 41.7407C99.6541 41.7407 99.6045 41.7193 99.5432 41.6767C99.3027 41.5154 99.1659 41.4206 99.1329 41.3921C99.0385 41.2973 98.9914 41.174 98.9914 41.0223C98.9914 40.9464 99.0032 40.8539 99.0267 40.7449C99.5739 37.7243 100.279 35.1518 101.142 33.0274C101.793 31.4247 102.376 30.3862 102.89 29.912C103.031 29.7792 103.173 29.7152 103.314 29.7199C103.442 29.7247 103.607 29.8053 103.809 29.9618C104.041 30.1514 104.272 30.3435 104.503 30.5379Z" fill="#303030"/>
<path d="M106.158 37.0746C106.149 37.4967 106.048 38.0562 105.854 38.7533C105.548 39.8534 105.114 40.7069 104.552 41.3139C104.255 41.6364 103.925 41.7976 103.562 41.7976C103.42 41.7976 103.239 41.7668 103.017 41.7051C102.574 41.6767 102.213 41.5368 101.935 41.2855C101.633 41.0104 101.491 40.6571 101.51 40.2256C101.529 39.723 101.701 39.0212 102.027 38.1202C102.385 37.1387 102.758 36.4321 103.144 36.0006C103.328 35.792 103.479 35.6876 103.597 35.6876C103.758 35.6876 104.017 35.8536 104.375 36.1855C104.475 36.1381 104.677 36.0504 104.984 35.9224C105.14 35.8702 105.257 35.8441 105.338 35.8441C105.522 35.8441 105.727 36.0172 105.953 36.3633C106.099 36.5767 106.168 36.8138 106.158 37.0746ZM105.345 37.2809C105.378 36.9632 105.394 36.7617 105.394 36.6763C105.394 36.4772 105.333 36.3776 105.21 36.3776C105.163 36.3776 105.102 36.3871 105.026 36.406L103.93 36.8541C103.802 36.9063 103.729 36.9324 103.71 36.9324C103.673 36.9324 103.635 36.8873 103.597 36.7972C103.324 37.1339 103.069 37.62 102.833 38.2554C102.649 38.7533 102.522 39.199 102.451 39.5926C102.399 39.8581 102.373 40.1 102.373 40.3181C102.373 41.0484 102.597 41.404 103.045 41.385C103.225 41.3803 103.418 41.3092 103.626 41.1716C104.022 40.9014 104.392 40.3608 104.736 39.5499C105.066 38.7865 105.269 38.0301 105.345 37.2809Z" fill="#303030"/>
<path d="M111.139 36.2282C111.139 36.8494 111.057 37.4421 110.892 38.0064C110.84 38.1771 110.769 38.2625 110.679 38.2625C110.613 38.2625 110.467 38.1676 110.241 37.978C110.127 37.8831 110.099 37.748 110.156 37.5725C110.288 37.141 110.354 36.7949 110.354 36.5341C110.354 36.444 110.335 36.3989 110.297 36.3989C110.241 36.3989 110.149 36.4843 110.021 36.655C109.04 37.94 108.307 39.3816 107.821 40.9796C107.665 41.487 107.533 41.7407 107.425 41.7407C107.382 41.7407 107.196 41.6577 106.866 41.4917C106.706 41.4111 106.651 41.2546 106.703 41.0223C107.076 39.3816 107.477 37.9969 107.906 36.8684C107.557 37.2382 107.335 37.4919 107.241 37.6294C107.203 37.6863 107.151 37.7148 107.085 37.7148C107.005 37.7148 106.965 37.6792 106.965 37.6081C106.965 37.5654 106.984 37.518 107.022 37.4658C107.253 37.1861 107.562 36.7593 107.948 36.1855C108.066 35.9769 108.184 35.8726 108.302 35.8726C108.387 35.8726 108.559 35.9389 108.819 36.0717C108.965 36.1476 108.988 36.2495 108.889 36.3776C108.786 36.5151 108.59 37.0011 108.302 37.8357C108.029 38.6466 107.84 39.282 107.736 39.742C108.378 38.3052 109.106 37.0367 109.922 35.9366C110.078 35.7279 110.203 35.6236 110.297 35.6236C110.382 35.6236 110.498 35.6805 110.644 35.7943C110.842 35.818 110.967 35.8489 111.019 35.8868C111.099 35.9437 111.139 36.0575 111.139 36.2282Z" fill="#303030"/>
<path d="M114.217 33.6249C114.292 33.6818 114.33 33.7458 114.33 33.8169C114.33 33.9545 114.127 34.1678 113.722 34.4571C113.453 34.642 113.193 34.7084 112.943 34.6563C112.802 34.6278 112.679 34.5756 112.575 34.4998C112.542 34.4713 112.516 34.4429 112.498 34.4144C112.483 34.3812 112.481 34.3552 112.491 34.3362C112.505 34.3172 112.533 34.3125 112.575 34.322C113.009 33.9426 113.295 33.6699 113.431 33.504C113.54 33.3807 113.618 33.319 113.665 33.319C113.75 33.319 113.934 33.421 114.217 33.6249ZM113.219 36.7403C113.106 37.3805 112.811 38.445 112.335 39.934C112.472 39.8107 112.66 39.5855 112.901 39.2583C112.934 39.2156 112.967 39.1943 113 39.1943C113.075 39.1943 113.085 39.2607 113.028 39.3934C113.005 39.4456 112.807 39.7704 112.434 40.3679C112.151 40.8231 111.943 41.2262 111.811 41.5771C111.769 41.6861 111.691 41.7407 111.578 41.7407C111.465 41.7407 111.311 41.6861 111.118 41.5771C110.995 41.5107 110.934 41.4609 110.934 41.4277C110.934 41.3993 110.96 41.3376 111.012 41.2428C111.267 40.7923 111.55 40.0383 111.861 38.9809C112.158 37.9566 112.325 37.1956 112.363 36.6977C112.377 36.4843 112.356 36.3776 112.299 36.3776C112.257 36.3776 112.182 36.4297 112.073 36.5341L111.634 36.9466C111.479 37.0889 111.401 37.096 111.401 36.9679C111.401 36.93 111.422 36.8826 111.465 36.8257C111.686 36.5127 111.922 36.2163 112.172 35.9366C112.248 35.856 112.321 35.8157 112.391 35.8157C112.467 35.8157 112.578 35.8678 112.724 35.9721C112.941 36.029 113.061 36.0646 113.085 36.0788C113.193 36.1452 113.248 36.2685 113.248 36.4487C113.248 36.5341 113.238 36.6313 113.219 36.7403Z" fill="#303030"/>
<path d="M119.353 39.0449C119.07 39.4764 118.702 40.1023 118.25 40.9227C118.165 41.1361 118.082 41.3495 118.002 41.5629C117.936 41.7099 117.849 41.7834 117.74 41.7834C117.655 41.7834 117.53 41.7478 117.365 41.6767C117.181 41.6008 117.089 41.5249 117.089 41.449C117.089 41.4159 117.12 41.3424 117.181 41.2285C117.488 40.6026 117.761 39.8226 118.002 38.8884C118.261 37.9068 118.372 37.1576 118.334 36.6408C118.325 36.4321 118.278 36.3278 118.193 36.3278C118.132 36.3278 118.04 36.3871 117.917 36.5056C116.728 37.6721 115.7 39.2322 114.832 41.1859C114.724 41.4277 114.597 41.5486 114.45 41.5486C114.347 41.5486 114.174 41.4894 113.934 41.3708C113.839 41.3281 113.79 41.2878 113.785 41.2499C113.785 41.2309 113.811 41.1645 113.863 41.0507C114.137 40.4485 114.408 39.6851 114.677 38.7604C114.964 37.7598 115.127 36.9798 115.165 36.4203C115.174 36.2495 115.17 36.1642 115.151 36.1642C115.146 36.1642 115.08 36.2282 114.953 36.3562C114.825 36.4843 114.648 36.6502 114.422 36.8541C114.38 36.8968 114.332 36.9182 114.28 36.9182C114.214 36.9182 114.181 36.8921 114.181 36.8399C114.181 36.802 114.205 36.7593 114.252 36.7119C114.455 36.4511 114.721 36.1263 115.052 35.7374C115.122 35.6568 115.196 35.6165 115.271 35.6165C115.384 35.6165 115.483 35.6995 115.568 35.8654C115.95 35.9793 116.129 36.1547 116.106 36.3918C116.054 36.9134 115.787 37.8547 115.306 39.2156C115.622 38.6039 116.082 37.9211 116.686 37.1671C117.29 36.4084 117.738 35.9603 118.03 35.8228C118.176 35.7564 118.28 35.7232 118.342 35.7232C118.403 35.7232 118.502 35.7754 118.639 35.8797C119.03 36.0172 119.224 36.2448 119.219 36.5625C119.219 36.8944 119.139 37.4279 118.978 38.1629C118.851 38.7699 118.733 39.2417 118.625 39.5784C118.761 39.4029 118.936 39.1753 119.148 38.8955C119.186 38.8481 119.224 38.8244 119.261 38.8244C119.332 38.8244 119.367 38.8694 119.367 38.9595C119.367 38.988 119.363 39.0164 119.353 39.0449Z" fill="#303030"/>
<path d="M125.042 36.5483C123.594 44.1021 121.712 47.8767 119.396 47.872C118.561 47.872 117.658 47.4096 116.686 46.485C116.596 46.3996 116.552 46.3119 116.552 46.2218C116.552 46.0843 116.615 46.0155 116.743 46.0155C116.809 46.0155 116.872 46.0416 116.934 46.0938C117.702 46.7529 118.391 47.0824 119 47.0824C120.943 47.0824 122.563 44.2136 123.86 38.4759C123.072 39.8368 122.386 40.8113 121.801 41.3993C121.565 41.6411 121.356 41.762 121.172 41.762C121.002 41.762 120.792 41.6672 120.542 41.4775C120.094 41.2546 119.879 40.8895 119.898 40.3821C119.926 39.7609 120.165 38.9904 120.613 38.0704C121.051 37.1742 121.509 36.4985 121.985 36.0433C122.254 35.7872 122.497 35.6592 122.714 35.6592C122.874 35.6592 123.051 35.7303 123.245 35.8726C123.273 35.8963 123.462 36.0646 123.811 36.3776C123.881 36.4392 123.917 36.5009 123.917 36.5625C123.917 36.6479 123.86 36.6905 123.747 36.6905C123.676 36.6905 123.596 36.6692 123.506 36.6265C123.365 36.5507 123.226 36.5127 123.089 36.5127C122.891 36.5127 122.712 36.5839 122.551 36.7261C122.207 37.0296 121.846 37.5227 121.469 38.2056C121.058 38.9548 120.806 39.6376 120.712 40.2541C120.688 40.4201 120.676 40.5647 120.676 40.688C120.676 41.0389 120.771 41.2143 120.959 41.2143C121.087 41.2143 121.221 41.1503 121.363 41.0223C121.924 40.5386 122.48 39.8392 123.032 38.924C123.546 38.0799 123.912 37.3046 124.129 36.5981C124.209 36.3468 124.249 36.1073 124.249 35.8797C124.249 35.6995 124.292 35.6094 124.377 35.6094C124.466 35.6094 124.641 35.709 124.9 35.9081C125.056 36.0267 125.103 36.2401 125.042 36.5483Z" fill="#303030"/>
<path d="M134.225 34.2935C134.06 35.6734 133.626 37.2098 132.923 38.9026C132.098 40.899 131.298 41.9019 130.525 41.9114C130.058 41.9161 129.489 41.6648 128.82 41.1574C128.768 41.1147 128.742 41.0602 128.742 40.9938C128.742 40.8279 128.817 40.7449 128.968 40.7449C129.006 40.7449 129.044 40.7544 129.081 40.7733C129.487 40.982 129.834 41.0887 130.121 41.0934C130.749 41.1124 131.44 40.1758 132.194 38.2838C132.916 36.4582 133.303 34.8222 133.355 33.3759C133.369 32.9065 133.138 32.6718 132.661 32.6718C132.586 32.6718 132.503 32.6789 132.414 32.6931C132.046 32.7453 131.628 33.0393 131.161 33.5751C130.643 34.1726 130.277 34.8531 130.065 35.6165C130.037 35.7161 130.022 35.8109 130.022 35.901C130.022 36.0765 130.081 36.2377 130.199 36.3847C130.308 36.4938 130.416 36.6028 130.525 36.7119C130.577 36.764 130.603 36.8115 130.603 36.8541C130.603 36.9442 130.532 36.9893 130.39 36.9893C130.334 36.9893 130.287 36.9798 130.249 36.9608C129.843 36.719 129.565 36.5222 129.414 36.3705C129.235 36.1855 129.145 35.9745 129.145 35.7374C129.145 35.5145 129.23 35.2087 129.4 34.8199C129.645 34.2461 130.011 33.6842 130.496 33.1341C130.959 32.6078 131.374 32.2663 131.742 32.1099C131.911 32.034 132.26 32.0767 132.789 32.2379C132.822 32.1952 132.871 32.1739 132.937 32.1739C133.121 32.1739 133.482 32.3517 134.02 32.7073C134.26 32.8638 134.329 33.3925 134.225 34.2935Z" fill="#303030"/>
<path d="M142.899 39.3081C142.592 39.768 142.135 40.5789 141.526 41.7407C141.47 41.845 141.434 41.8995 141.42 41.9043C141.378 41.928 141.279 41.9161 141.123 41.8687C140.798 41.7691 140.635 41.6743 140.635 41.5842C140.635 41.532 140.656 41.4562 140.699 41.3566C141.052 40.5267 141.354 39.6424 141.604 38.7035C141.859 37.7598 141.982 37.0367 141.972 36.5341C141.972 36.3681 141.913 36.2851 141.795 36.2851C141.715 36.2851 141.621 36.3302 141.512 36.4203C141.111 36.7474 140.593 37.3829 139.956 38.3265C139.192 39.4646 138.652 40.5291 138.336 41.5202C138.303 41.634 138.274 41.698 138.251 41.7122C138.222 41.7264 138.154 41.7146 138.046 41.6767C137.885 41.6198 137.732 41.5391 137.586 41.4348C137.515 41.3827 137.479 41.3281 137.479 41.2712C137.479 41.2617 137.515 41.1693 137.586 40.9938C138.204 39.4385 138.512 37.9329 138.512 36.4772C138.512 36.3302 138.47 36.2567 138.385 36.2567C138.324 36.2567 138.246 36.297 138.152 36.3776C137.647 36.8043 137.086 37.5393 136.468 38.5826C135.873 39.5784 135.43 40.5125 135.138 41.385C135.062 41.6079 134.984 41.7193 134.904 41.7193C134.81 41.7193 134.616 41.6126 134.324 41.3993C134.249 41.3566 134.211 41.3115 134.211 41.2641C134.211 41.212 134.263 41.1313 134.366 41.0223C134.56 40.6097 134.779 39.8984 135.024 38.8884C135.303 37.7361 135.423 36.8992 135.385 36.3776C135.315 36.4487 135.194 36.5673 135.024 36.7332C134.855 36.8944 134.727 37.0177 134.642 37.1031C134.581 37.1647 134.527 37.1956 134.48 37.1956C134.409 37.1956 134.374 37.1481 134.374 37.0533C134.374 36.9774 134.399 36.911 134.451 36.8541C134.716 36.5791 134.977 36.2543 135.237 35.8797C135.331 35.7469 135.414 35.6805 135.484 35.6805C135.536 35.6805 135.638 35.7564 135.789 35.9081C135.906 35.9508 136.024 35.9935 136.142 36.0362C136.241 36.0836 136.291 36.1713 136.291 36.2993C136.291 36.3373 136.286 36.3776 136.277 36.4203C136.159 37.3354 135.977 38.189 135.732 38.9809C136.567 37.473 137.343 36.4013 138.06 35.7659C138.159 35.6758 138.255 35.6307 138.35 35.6307C138.449 35.6307 138.6 35.6947 138.803 35.8228C138.996 35.9081 139.123 35.984 139.185 36.0504C139.255 36.1357 139.291 36.2685 139.291 36.4487C139.291 37.4161 139.18 38.2767 138.958 39.0307C139.878 37.5654 140.715 36.4772 141.47 35.7659C141.569 35.671 141.673 35.6236 141.781 35.6236C141.923 35.6236 142.097 35.7184 142.305 35.9081C142.673 35.965 142.847 36.1903 142.828 36.5838C142.772 37.7267 142.526 38.8315 142.092 39.8984C142.328 39.6187 142.512 39.3768 142.644 39.1729C142.706 39.0734 142.776 39.0236 142.857 39.0236C142.927 39.0236 142.963 39.0615 142.963 39.1374C142.963 39.1848 142.941 39.2417 142.899 39.3081Z" fill="#303030"/>
<path d="M148.573 36.8399C148.139 38.0491 147.84 39.0639 147.675 39.8842C147.745 39.8178 147.837 39.7159 147.951 39.5784C148.068 39.4408 148.142 39.3602 148.17 39.3365C148.236 39.2512 148.307 39.2085 148.382 39.2085C148.453 39.2085 148.488 39.2441 148.488 39.3152C148.488 39.3579 148.469 39.4077 148.432 39.4646C147.988 40.1237 147.693 40.7899 147.547 41.4633C147.505 41.653 147.441 41.7478 147.356 41.7478C147.276 41.7478 147.127 41.6719 146.91 41.5202C146.783 41.4348 146.71 41.3637 146.691 41.3068C146.668 41.2546 146.668 41.1503 146.691 40.9938C146.889 39.7894 147.137 38.7888 147.434 37.9922C147.024 38.6608 146.465 39.4005 145.757 40.2114C145.139 40.918 144.694 41.3684 144.42 41.5629C144.222 41.7004 144.071 41.7691 143.967 41.7691C143.882 41.7691 143.753 41.7004 143.578 41.5629C143.328 41.4111 143.203 41.2025 143.203 40.9369C143.203 40.8848 143.208 40.8255 143.217 40.7591C143.302 40.0573 143.609 39.2417 144.137 38.3123C144.665 37.3781 145.271 36.591 145.955 35.9508C146.177 35.7422 146.375 35.6402 146.55 35.645C146.719 35.6544 147.043 35.8797 147.519 36.3207C147.561 36.3586 147.583 36.3989 147.583 36.4416C147.583 36.5175 147.533 36.5554 147.434 36.5554C147.396 36.5554 147.361 36.5483 147.328 36.5341C146.993 36.3918 146.724 36.3965 146.521 36.5483C146.078 36.8755 145.587 37.4516 145.05 38.2767C144.427 39.2251 144.052 40.0786 143.925 40.8373C143.92 40.8705 143.918 40.9014 143.918 40.9298C143.918 41.0484 143.965 41.1076 144.059 41.1076C144.22 41.1076 144.411 40.9962 144.632 40.7733C145.161 40.2565 145.727 39.6068 146.33 38.8244C146.948 38.0135 147.344 37.4018 147.519 36.9893C147.646 36.6858 147.729 36.4724 147.767 36.3491C147.828 36.1357 147.894 36.029 147.965 36.029C148.035 36.029 148.201 36.1263 148.46 36.3207C148.568 36.4013 148.627 36.4748 148.637 36.5412C148.646 36.5981 148.625 36.6977 148.573 36.8399Z" fill="#303030"/>
<path d="M154.261 36.5483C152.813 44.1021 150.931 47.8767 148.616 47.872C147.781 47.872 146.877 47.4096 145.906 46.485C145.816 46.3996 145.771 46.3119 145.771 46.2218C145.771 46.0843 145.835 46.0155 145.962 46.0155C146.028 46.0155 146.092 46.0416 146.153 46.0938C146.922 46.7529 147.611 47.0824 148.219 47.0824C150.163 47.0824 151.783 44.2136 153.08 38.4759C152.292 39.8368 151.606 40.8113 151.021 41.3993C150.785 41.6411 150.575 41.762 150.391 41.762C150.222 41.762 150.012 41.6672 149.762 41.4775C149.314 41.2546 149.099 40.8895 149.118 40.3821C149.146 39.7609 149.384 38.9904 149.832 38.0704C150.271 37.1742 150.729 36.4985 151.205 36.0433C151.474 35.7872 151.717 35.6592 151.934 35.6592C152.094 35.6592 152.271 35.7303 152.464 35.8726C152.493 35.8963 152.681 36.0646 153.03 36.3776C153.101 36.4392 153.137 36.5009 153.137 36.5625C153.137 36.6479 153.08 36.6905 152.967 36.6905C152.896 36.6905 152.816 36.6692 152.726 36.6265C152.585 36.5507 152.446 36.5127 152.309 36.5127C152.111 36.5127 151.931 36.5839 151.771 36.7261C151.427 37.0296 151.066 37.5227 150.689 38.2056C150.278 38.9548 150.026 39.6376 149.932 40.2541C149.908 40.4201 149.896 40.5647 149.896 40.688C149.896 41.0389 149.99 41.2143 150.179 41.2143C150.307 41.2143 150.441 41.1503 150.582 41.0223C151.144 40.5386 151.7 39.8392 152.252 38.924C152.766 38.0799 153.132 37.3046 153.349 36.5981C153.429 36.3468 153.469 36.1073 153.469 35.8797C153.469 35.6995 153.511 35.6094 153.596 35.6094C153.686 35.6094 153.861 35.709 154.12 35.9081C154.276 36.0267 154.323 36.2401 154.261 36.5483Z" fill="#303030"/>
<path d="M157.912 33.6249C157.988 33.6818 158.025 33.7458 158.025 33.8169C158.025 33.9545 157.823 34.1678 157.417 34.4571C157.148 34.642 156.889 34.7084 156.639 34.6563C156.497 34.6278 156.375 34.5756 156.271 34.4998C156.238 34.4713 156.212 34.4429 156.193 34.4144C156.179 34.3812 156.176 34.3552 156.186 34.3362C156.2 34.3172 156.228 34.3125 156.271 34.322C156.705 33.9426 156.99 33.6699 157.127 33.504C157.235 33.3807 157.313 33.319 157.36 33.319C157.445 33.319 157.629 33.421 157.912 33.6249ZM156.915 36.7403C156.801 37.3805 156.507 38.445 156.03 39.934C156.167 39.8107 156.356 39.5855 156.596 39.2583C156.629 39.2156 156.662 39.1943 156.695 39.1943C156.771 39.1943 156.78 39.2607 156.724 39.3934C156.7 39.4456 156.502 39.7704 156.129 40.3679C155.846 40.8231 155.639 41.2262 155.507 41.5771C155.464 41.6861 155.386 41.7407 155.273 41.7407C155.16 41.7407 155.007 41.6861 154.813 41.5771C154.691 41.5107 154.629 41.4609 154.629 41.4277C154.629 41.3993 154.655 41.3376 154.707 41.2428C154.962 40.7923 155.245 40.0383 155.556 38.9809C155.853 37.9566 156.021 37.1956 156.059 36.6977C156.073 36.4843 156.051 36.3776 155.995 36.3776C155.952 36.3776 155.877 36.4297 155.768 36.5341L155.33 36.9466C155.174 37.0889 155.096 37.096 155.096 36.9679C155.096 36.93 155.118 36.8826 155.16 36.8257C155.382 36.5127 155.617 36.2163 155.867 35.9366C155.943 35.856 156.016 35.8157 156.087 35.8157C156.162 35.8157 156.273 35.8678 156.419 35.9721C156.636 36.029 156.757 36.0646 156.78 36.0788C156.889 36.1452 156.943 36.2685 156.943 36.4487C156.943 36.5341 156.933 36.6313 156.915 36.7403Z" fill="#303030"/>
<path d="M163.049 39.0449C162.766 39.4764 162.398 40.1023 161.945 40.9227C161.86 41.1361 161.777 41.3495 161.697 41.5629C161.631 41.7099 161.544 41.7834 161.436 41.7834C161.351 41.7834 161.226 41.7478 161.061 41.6767C160.877 41.6008 160.785 41.5249 160.785 41.449C160.785 41.4159 160.815 41.3424 160.877 41.2285C161.183 40.6026 161.457 39.8226 161.697 38.8884C161.957 37.9068 162.068 37.1576 162.03 36.6408C162.02 36.4321 161.973 36.3278 161.888 36.3278C161.827 36.3278 161.735 36.3871 161.612 36.5056C160.424 37.6721 159.396 39.2322 158.528 41.1859C158.419 41.4277 158.292 41.5486 158.146 41.5486C158.042 41.5486 157.87 41.4894 157.629 41.3708C157.535 41.3281 157.485 41.2878 157.481 41.2499C157.481 41.2309 157.507 41.1645 157.558 41.0507C157.832 40.4485 158.103 39.6851 158.372 38.7604C158.66 37.7598 158.822 36.9798 158.86 36.4203C158.87 36.2495 158.865 36.1642 158.846 36.1642C158.841 36.1642 158.775 36.2282 158.648 36.3562C158.521 36.4843 158.344 36.6502 158.117 36.8541C158.075 36.8968 158.028 36.9182 157.976 36.9182C157.91 36.9182 157.877 36.8921 157.877 36.8399C157.877 36.802 157.9 36.7593 157.948 36.7119C158.15 36.4511 158.417 36.1263 158.747 35.7374C158.818 35.6568 158.891 35.6165 158.966 35.6165C159.08 35.6165 159.179 35.6995 159.263 35.8654C159.646 35.9793 159.825 36.1547 159.801 36.3918C159.749 36.9134 159.483 37.8547 159.002 39.2156C159.318 38.6039 159.778 37.9211 160.381 37.1671C160.985 36.4084 161.433 35.9603 161.726 35.8228C161.872 35.7564 161.976 35.7232 162.037 35.7232C162.098 35.7232 162.197 35.7754 162.334 35.8797C162.726 36.0172 162.919 36.2448 162.914 36.5625C162.914 36.8944 162.834 37.4279 162.674 38.1629C162.546 38.7699 162.428 39.2417 162.32 39.5784C162.457 39.4029 162.631 39.1753 162.843 38.8955C162.881 38.8481 162.919 38.8244 162.957 38.8244C163.027 38.8244 163.063 38.8694 163.063 38.9595C163.063 38.988 163.058 39.0164 163.049 39.0449Z" fill="#303030"/>
<path d="M168.695 36.8399C168.261 38.0491 167.961 39.0639 167.796 39.8842C167.867 39.8178 167.959 39.7159 168.072 39.5784C168.19 39.4408 168.263 39.3602 168.291 39.3365C168.357 39.2512 168.428 39.2085 168.503 39.2085C168.574 39.2085 168.61 39.2441 168.61 39.3152C168.61 39.3579 168.591 39.4077 168.553 39.4646C168.11 40.1237 167.815 40.7899 167.669 41.4633C167.626 41.653 167.562 41.7478 167.478 41.7478C167.397 41.7478 167.249 41.6719 167.032 41.5202C166.905 41.4348 166.831 41.3637 166.813 41.3068C166.789 41.2546 166.789 41.1503 166.813 40.9938C167.011 39.7894 167.258 38.7888 167.555 37.9922C167.145 38.6608 166.586 39.4005 165.879 40.2114C165.261 40.918 164.815 41.3684 164.541 41.5629C164.343 41.7004 164.192 41.7691 164.089 41.7691C164.004 41.7691 163.874 41.7004 163.7 41.5629C163.45 41.4111 163.325 41.2025 163.325 40.9369C163.325 40.8848 163.329 40.8255 163.339 40.7591C163.424 40.0573 163.73 39.2417 164.258 38.3123C164.787 37.3781 165.393 36.591 166.077 35.9508C166.298 35.7422 166.497 35.6402 166.671 35.645C166.841 35.6544 167.164 35.8797 167.64 36.3207C167.683 36.3586 167.704 36.3989 167.704 36.4416C167.704 36.5175 167.654 36.5554 167.555 36.5554C167.518 36.5554 167.482 36.5483 167.449 36.5341C167.114 36.3918 166.846 36.3965 166.643 36.5483C166.199 36.8755 165.709 37.4516 165.171 38.2767C164.549 39.2251 164.174 40.0786 164.046 40.8373C164.041 40.8705 164.039 40.9014 164.039 40.9298C164.039 41.0484 164.086 41.1076 164.181 41.1076C164.341 41.1076 164.532 40.9962 164.754 40.7733C165.282 40.2565 165.848 39.6068 166.452 38.8244C167.07 38.0135 167.466 37.4018 167.64 36.9893C167.768 36.6858 167.85 36.4724 167.888 36.3491C167.949 36.1357 168.015 36.029 168.086 36.029C168.157 36.029 168.322 36.1263 168.581 36.3207C168.69 36.4013 168.749 36.4748 168.758 36.5412C168.768 36.5981 168.746 36.6977 168.695 36.8399Z" fill="#303030"/>
<path d="M173.414 32.5011C173.546 32.5722 173.612 32.6528 173.612 32.7429C173.612 32.8045 173.567 32.8354 173.477 32.8354C173.458 32.8354 173.428 32.833 173.385 32.8283C173.348 32.8188 173.319 32.814 173.3 32.814C173.121 32.814 172.904 33.0108 172.649 33.4044C172.423 33.7553 172.109 34.5187 171.708 35.6947C171.671 35.7991 171.657 35.8607 171.666 35.8797C171.68 35.9129 171.741 35.9318 171.85 35.9366C172.128 35.9603 172.501 35.9508 172.968 35.9081C173.128 35.8939 173.208 35.9627 173.208 36.1144C173.208 36.2187 173.147 36.2827 173.024 36.3064C172.925 36.3207 172.404 36.3633 171.461 36.4345C170.895 38.0989 170.551 39.5072 170.428 40.6595C170.423 40.7212 170.421 40.7757 170.421 40.8231C170.421 40.9843 170.461 41.065 170.541 41.065C170.668 41.065 171.053 40.7544 171.694 40.1332C171.77 40.0573 171.843 40.0194 171.914 40.0194C171.975 40.0194 172.013 40.0454 172.027 40.0976C172.041 40.1545 172.02 40.2209 171.963 40.2968C171.581 40.8041 171.206 41.2357 170.838 41.5913C170.683 41.7383 170.553 41.8118 170.449 41.8118C170.345 41.8118 170.185 41.7288 169.968 41.5629C169.699 41.4917 169.565 41.3495 169.565 41.1361C169.565 41.1029 169.569 41.065 169.579 41.0223C169.753 39.7989 170.095 38.2933 170.605 36.5056C170.355 36.4724 170.128 36.4392 169.926 36.406C169.836 36.3918 169.791 36.3349 169.791 36.2353C169.791 36.1263 169.838 36.0599 169.933 36.0362C170.027 36.0124 170.201 35.9603 170.456 35.8797C170.612 35.8275 170.763 35.7564 170.909 35.6663C171.414 34.0967 171.81 33.0796 172.098 32.6149C172.263 32.3493 172.44 32.2165 172.628 32.2165C172.807 32.2165 173.069 32.3114 173.414 32.5011Z" fill="#303030"/>
<path d="M175.798 33.6249C175.873 33.6818 175.911 33.7458 175.911 33.8169C175.911 33.9545 175.708 34.1678 175.303 34.4571C175.034 34.642 174.774 34.7084 174.524 34.6563C174.383 34.6278 174.26 34.5756 174.156 34.4998C174.123 34.4713 174.097 34.4429 174.079 34.4144C174.064 34.3812 174.062 34.3552 174.072 34.3362C174.086 34.3172 174.114 34.3125 174.156 34.322C174.59 33.9426 174.876 33.6699 175.012 33.504C175.121 33.3807 175.199 33.319 175.246 33.319C175.331 33.319 175.515 33.421 175.798 33.6249ZM174.8 36.7403C174.687 37.3805 174.392 38.445 173.916 39.934C174.053 39.8107 174.241 39.5855 174.482 39.2583C174.515 39.2156 174.548 39.1943 174.581 39.1943C174.656 39.1943 174.666 39.2607 174.609 39.3934C174.586 39.4456 174.388 39.7704 174.015 40.3679C173.732 40.8231 173.524 41.2262 173.392 41.5771C173.35 41.6861 173.272 41.7407 173.159 41.7407C173.046 41.7407 172.892 41.6861 172.699 41.5771C172.576 41.5107 172.515 41.4609 172.515 41.4277C172.515 41.3993 172.541 41.3376 172.593 41.2428C172.848 40.7923 173.131 40.0383 173.442 38.9809C173.739 37.9566 173.906 37.1956 173.944 36.6977C173.958 36.4843 173.937 36.3776 173.88 36.3776C173.838 36.3776 173.763 36.4297 173.654 36.5341L173.215 36.9466C173.06 37.0889 172.982 37.096 172.982 36.9679C172.982 36.93 173.003 36.8826 173.046 36.8257C173.267 36.5127 173.503 36.2163 173.753 35.9366C173.829 35.856 173.902 35.8157 173.972 35.8157C174.048 35.8157 174.159 35.8678 174.305 35.9721C174.522 36.029 174.642 36.0646 174.666 36.0788C174.774 36.1452 174.829 36.2685 174.829 36.4487C174.829 36.5341 174.819 36.6313 174.8 36.7403Z" fill="#303030"/>
<path d="M180.107 37.0746C180.097 37.4967 179.996 38.0562 179.802 38.7533C179.496 39.8534 179.062 40.7069 178.5 41.3139C178.203 41.6364 177.873 41.7976 177.51 41.7976C177.368 41.7976 177.187 41.7668 176.965 41.7051C176.522 41.6767 176.161 41.5368 175.883 41.2855C175.581 41.0104 175.439 40.6571 175.458 40.2256C175.477 39.723 175.649 39.0212 175.975 38.1202C176.333 37.1387 176.706 36.4321 177.093 36.0006C177.276 35.792 177.427 35.6876 177.545 35.6876C177.706 35.6876 177.965 35.8536 178.324 36.1855C178.423 36.1381 178.625 36.0504 178.932 35.9224C179.088 35.8702 179.206 35.8441 179.286 35.8441C179.47 35.8441 179.675 36.0172 179.901 36.3633C180.048 36.5767 180.116 36.8138 180.107 37.0746ZM179.293 37.2809C179.326 36.9632 179.342 36.7617 179.342 36.6763C179.342 36.4772 179.281 36.3776 179.158 36.3776C179.111 36.3776 179.05 36.3871 178.975 36.406L177.878 36.8541C177.751 36.9063 177.677 36.9324 177.659 36.9324C177.621 36.9324 177.583 36.8873 177.545 36.7972C177.272 37.1339 177.017 37.62 176.781 38.2554C176.597 38.7533 176.47 39.199 176.399 39.5926C176.347 39.8581 176.321 40.1 176.321 40.3181C176.321 41.0484 176.545 41.404 176.993 41.385C177.173 41.3803 177.366 41.3092 177.574 41.1716C177.97 40.9014 178.34 40.3608 178.684 39.5499C179.015 38.7865 179.217 38.0301 179.293 37.2809Z" fill="#303030"/>
<path d="M185.986 39.0449C185.703 39.4764 185.335 40.1023 184.882 40.9227C184.797 41.1361 184.715 41.3495 184.635 41.5629C184.568 41.7099 184.481 41.7834 184.373 41.7834C184.288 41.7834 184.163 41.7478 183.998 41.6767C183.814 41.6008 183.722 41.5249 183.722 41.449C183.722 41.4159 183.753 41.3424 183.814 41.2285C184.12 40.6026 184.394 39.8226 184.635 38.8884C184.894 37.9068 185.005 37.1576 184.967 36.6408C184.958 36.4321 184.91 36.3278 184.826 36.3278C184.764 36.3278 184.672 36.3871 184.55 36.5056C183.361 37.6721 182.333 39.2322 181.465 41.1859C181.356 41.4277 181.229 41.5486 181.083 41.5486C180.979 41.5486 180.807 41.4894 180.566 41.3708C180.472 41.3281 180.423 41.2878 180.418 41.2499C180.418 41.2309 180.444 41.1645 180.496 41.0507C180.769 40.4485 181.04 39.6851 181.309 38.7604C181.597 37.7598 181.76 36.9798 181.797 36.4203C181.807 36.2495 181.802 36.1642 181.783 36.1642C181.779 36.1642 181.713 36.2282 181.585 36.3562C181.458 36.4843 181.281 36.6502 181.055 36.8541C181.012 36.8968 180.965 36.9182 180.913 36.9182C180.847 36.9182 180.814 36.8921 180.814 36.8399C180.814 36.802 180.838 36.7593 180.885 36.7119C181.088 36.4511 181.354 36.1263 181.684 35.7374C181.755 35.6568 181.828 35.6165 181.904 35.6165C182.017 35.6165 182.116 35.6995 182.201 35.8654C182.583 35.9793 182.762 36.1547 182.738 36.3918C182.687 36.9134 182.42 37.8547 181.939 39.2156C182.255 38.6039 182.715 37.9211 183.319 37.1671C183.922 36.4084 184.37 35.9603 184.663 35.8228C184.809 35.7564 184.913 35.7232 184.974 35.7232C185.035 35.7232 185.134 35.7754 185.271 35.8797C185.663 36.0172 185.856 36.2448 185.851 36.5625C185.851 36.8944 185.771 37.4279 185.611 38.1629C185.484 38.7699 185.366 39.2417 185.257 39.5784C185.394 39.4029 185.568 39.1753 185.781 38.8955C185.818 38.8481 185.856 38.8244 185.894 38.8244C185.965 38.8244 186 38.8694 186 38.9595C186 38.988 185.995 39.0164 185.986 39.0449Z" fill="#303030"/>
<path fill-rule="evenodd" clip-rule="evenodd" d="M21.8416 18.017L19.7309 19.8486C19.4125 20.1252 19.2003 20.3899 19.0942 20.6428C18.988 20.8918 18.935 21.1901 18.935 21.5379V24.3178C18.935 24.6576 19.0509 24.9481 19.2828 25.1891C19.5187 25.4262 19.8095 25.5448 20.1554 25.5448C20.4581 25.5448 20.7588 25.4203 21.0575 25.1714L21.7355 24.6083L22.0951 25.5448H23.4512C23.5888 25.5448 23.7047 25.4974 23.7991 25.4025C23.8973 25.3037 23.9464 25.1852 23.9464 25.0469C23.9464 24.9086 23.8973 24.792 23.7991 24.6972C23.7047 24.5984 23.5888 24.549 23.4512 24.549H22.785L22.5314 23.9207L23.1977 23.3457C23.689 22.9268 23.9347 22.4289 23.9347 21.852V18.8053C23.9347 18.5287 23.8128 18.2699 23.5691 18.0289C23.3293 17.7878 23.0444 17.6673 22.7142 17.6673C22.4155 17.6673 22.1246 17.7839 21.8416 18.017ZM20.3854 20.5776L22.4961 18.7461C22.555 18.6947 22.6258 18.669 22.7083 18.669C22.8577 18.669 22.9324 18.752 22.9324 18.918V21.852C22.9324 22.0535 22.8754 22.2294 22.7614 22.3796C22.6474 22.5258 22.4469 22.7115 22.16 22.9367L21.9065 22.2669C21.8318 22.0773 21.6785 21.9824 21.4466 21.9824C21.313 21.9824 21.197 22.0318 21.0988 22.1306C21.0005 22.2254 20.9514 22.3341 20.9514 22.4566C20.9514 22.5396 20.9749 22.6384 21.0221 22.753L21.3464 23.6243L20.3441 24.4897C20.2851 24.5411 20.2242 24.5668 20.1613 24.5668C20.0041 24.5668 19.9255 24.464 19.9255 24.2585V21.6623C19.9255 21.3936 19.955 21.1862 20.0139 21.04C20.0768 20.8938 20.2006 20.7396 20.3854 20.5776Z" fill="#303030"/>
<path fill-rule="evenodd" clip-rule="evenodd" d="M27.0065 35.1864C26.3562 37.9906 25.5035 40.2791 24.518 41.827C24.6109 42.125 24.6609 42.442 24.6609 42.7708C24.6609 44.512 23.2568 45.9236 21.5248 45.9236C19.7928 45.9236 18.3888 44.512 18.3888 42.7708C18.3888 42.442 18.4388 42.125 18.5317 41.827C17.5545 40.2921 16.7078 38.029 16.0596 35.257C11.4627 38.1027 7.67069 39.1099 6.10088 37.5317C4.50933 35.9316 5.56117 32.0352 8.48219 27.3271C3.32116 26.0696 0 24.1038 0 21.8946C0 19.6954 3.29108 17.7374 8.41203 16.4792C6.96704 14.1325 5.99061 11.9915 5.57942 10.2417C4.08417 10.0018 2.94153 8.69928 2.94153 7.12846C2.94153 5.3872 4.3456 3.97562 6.0776 3.97562C7.28876 3.97562 8.33956 4.66587 8.86202 5.67644C10.7517 5.87372 13.2679 6.93162 16.0851 8.67859C17.3342 3.40381 19.3061 0 21.5248 0C23.7534 0 25.733 3.43418 26.9812 8.74914C29.7759 7.00277 32.2804 5.92845 34.1795 5.69225C34.6992 4.67308 35.7546 3.97562 36.9721 3.97562C38.7041 3.97562 40.1082 5.3872 40.1082 7.12846C40.1082 8.65138 39.0341 9.9221 37.6061 10.2168C37.2059 11.9387 36.2555 14.0419 34.8478 16.3484C40.2816 17.5993 43.8094 19.6177 43.8094 21.8946C43.8094 24.1813 40.2512 26.2072 34.7776 27.4568C37.6376 32.1066 38.6557 35.9463 37.0788 37.5317C35.4961 39.1229 31.6545 38.086 27.0065 35.1864ZM27.1547 22.0219C27.1547 22.8121 27.1415 23.5916 27.116 24.3584C26.6168 24.8934 26.1014 25.4285 25.5707 25.9621C25.0371 26.4986 24.5018 27.0195 23.9667 27.5239C23.2887 27.5441 22.6009 27.5545 21.9047 27.5545C20.9837 27.5545 20.0773 27.5364 19.1889 27.5013C18.6618 27.0039 18.1346 26.4906 17.6089 25.9621C17.0304 25.3804 16.47 24.7969 15.929 24.2136C15.9066 23.4936 15.895 22.7624 15.895 22.0219C15.895 21.2372 15.908 20.4632 15.9332 19.7017C16.4729 19.12 17.0319 18.5379 17.6089 17.9577C18.1827 17.3809 18.7584 16.822 19.3337 16.2823C20.1757 16.2508 21.0337 16.2346 21.9047 16.2346C22.5518 16.2346 23.1918 16.2436 23.8233 16.2611C24.4062 16.8074 24.9894 17.3733 25.5707 17.9577C26.0999 18.4897 26.6138 19.0233 27.1116 19.5567C27.14 20.3648 27.1547 21.1874 27.1547 22.0219ZM26.4245 26.8205C26.6283 26.6156 26.8299 26.4105 27.0293 26.2051C27.0054 26.5969 26.9783 26.9847 26.9481 27.3681C26.5682 27.3967 26.1841 27.4222 25.7962 27.4444C26.0059 27.2388 26.2154 27.0307 26.4245 26.8205ZM28.3061 24.855C28.2735 25.673 28.2269 26.4768 28.1672 27.2641C29.8087 27.1076 31.3621 26.8916 32.8016 26.6251C31.9909 25.424 31.0639 24.1762 30.0326 22.9061C29.4812 23.5538 28.9051 24.2045 28.3061 24.855ZM24.4587 28.7222C25.2664 28.6928 26.0608 28.6496 26.8392 28.5933C26.6776 30.2278 26.4576 31.7729 26.1882 33.203C25.0065 32.3947 23.7795 31.4725 22.531 30.4479C23.1717 29.8966 23.8152 29.3208 24.4587 28.7222ZM28.0622 28.4931C27.8775 30.431 27.612 32.2551 27.2784 33.9246C28.1108 34.4568 28.9157 34.9276 29.6841 35.3326C31.4622 36.2697 32.9828 36.8212 34.1597 36.9996C35.366 37.1824 35.956 36.9438 36.225 36.6733C36.494 36.4029 36.7313 35.8097 36.5495 34.597C36.3721 33.4138 35.8235 31.8851 34.8914 30.0975C34.4957 29.3387 34.037 28.5446 33.5191 27.7237C31.8395 28.054 30.0068 28.3147 28.0622 28.4931ZM21.5898 31.242C23.0706 32.4666 24.5283 33.5552 25.926 34.4885C25.7096 35.4707 25.4688 36.3885 25.2069 37.232C24.7824 38.5992 24.3131 39.7368 23.8238 40.6263C23.251 40.006 22.433 39.6179 21.5248 39.6179C20.6167 39.6179 19.7986 40.006 19.2259 40.6263C18.7366 39.7368 18.2672 38.5991 17.8428 37.232C17.5876 36.4101 17.3524 35.5177 17.1404 34.5639C18.5726 33.614 20.069 32.4997 21.5898 31.242ZM20.6487 30.4479C19.3596 31.5058 18.0934 32.4546 16.8763 33.2814C16.5969 31.8121 16.3697 30.22 16.2045 28.5334C17.016 28.6018 17.846 28.656 18.6918 28.695C19.345 29.3034 19.9983 29.8882 20.6487 30.4479ZM15.786 33.998C15.4412 32.2871 15.168 30.4124 14.9804 28.4179C13.1056 28.2221 11.3434 27.9488 9.73233 27.6103C9.18505 28.4715 8.70213 29.3038 8.28827 30.0975C7.35614 31.8851 6.80762 33.4138 6.63017 34.597C6.44832 35.8097 6.68569 36.4029 6.95469 36.6733C7.2237 36.9438 7.81371 37.1824 9.01996 36.9996C10.1969 36.8212 11.7174 36.2697 13.4955 35.3326C14.2285 34.9463 14.9946 34.5002 15.786 33.998ZM10.4504 26.5182C11.8225 26.7904 13.3059 27.0158 14.8766 27.1862C14.8162 26.3763 14.7696 25.5491 14.7379 24.7072C14.1874 24.1059 13.6567 23.5048 13.147 22.9061C12.1463 24.1385 11.2438 25.3501 10.4504 26.5182ZM17.3407 27.4024C16.921 27.374 16.5063 27.3417 16.0967 27.3058C16.0648 26.896 16.0365 26.4813 16.0119 26.0621C16.2563 26.3152 16.5041 26.5681 16.7551 26.8205C16.95 27.0164 17.1453 27.2104 17.3407 27.4024ZM13.4955 8.58718C14.2353 8.9771 15.0089 9.42799 15.8083 9.93598C15.4679 11.6029 15.1959 13.4276 15.0051 15.3686C13.0927 15.5676 11.2972 15.8471 9.65935 16.1943C9.14202 15.374 8.68363 14.5805 8.28826 13.8223C7.57084 12.4464 7.08066 11.224 6.81201 10.1944C8.18972 9.86204 9.21367 8.61547 9.21367 7.12846C9.21367 7.06908 9.21204 7.01009 9.20882 6.95152C10.3578 7.15778 11.8111 7.69944 13.4955 8.58718ZM16.8973 10.6526C16.6226 12.0778 16.3972 13.6202 16.2302 15.2536C17.0808 15.1822 17.9517 15.1265 18.8397 15.0874C19.4436 14.5283 20.0474 13.9893 20.6487 13.4719C19.367 12.42 18.108 11.4761 16.8973 10.6526ZM10.3725 17.2864C11.772 17.0062 13.2885 16.7746 14.8963 16.6008C14.8294 17.451 14.778 18.3208 14.7429 19.2071C14.1906 19.8102 13.6583 20.4132 13.147 21.0137C12.1134 19.7407 11.1845 18.49 10.3725 17.2864ZM16.1172 16.4816C16.0803 16.9317 16.0478 17.3878 16.0198 17.8496C16.2616 17.5991 16.5068 17.349 16.7551 17.0993C16.9976 16.8555 17.2406 16.6148 17.4838 16.3772C17.0223 16.4074 16.5666 16.4423 16.1172 16.4816ZM13.9313 21.9599C14.1801 21.6657 14.4343 21.3706 14.6937 21.075C14.6896 21.389 14.6875 21.7046 14.6875 22.0219C14.6875 22.2968 14.6891 22.5706 14.6922 22.8431C14.4333 22.548 14.1796 22.2535 13.9313 21.9599ZM17.8428 6.81176C17.5972 7.60255 17.3702 8.45864 17.1645 9.37197C18.5894 10.3183 20.0775 11.4271 21.5898 12.6778C23.0622 11.4602 24.5116 10.377 25.9021 9.44733C25.6919 8.5057 25.4592 7.62426 25.2069 6.81176C24.6087 4.88508 23.9214 3.41423 23.2147 2.45141C22.4903 1.46462 21.9053 1.21393 21.5248 1.21393C21.1444 1.21393 20.5594 1.46462 19.835 2.45141C19.1282 3.41423 18.441 4.88508 17.8428 6.81176ZM22.531 13.4719C23.7722 12.4533 24.9921 11.5359 26.1674 10.7311C26.432 12.117 26.6501 13.6125 26.8133 15.1939C25.9961 15.1352 25.1614 15.0909 24.3122 15.0617C23.7176 14.5118 23.1231 13.9814 22.531 13.4719ZM25.6544 16.3367C26.0835 16.3604 26.508 16.388 26.9273 16.4195C26.9625 16.8431 26.9938 17.2722 27.0211 17.7062C26.8244 17.5037 26.6255 17.3014 26.4245 17.0993C26.1682 16.8417 25.9115 16.5874 25.6544 16.3367ZM28.1473 16.5231C28.2133 17.3506 28.2648 18.1969 28.3008 19.059C28.9017 19.7115 29.4796 20.3641 30.0326 21.0137C31.0972 19.7027 32.0506 18.4153 32.8797 17.1786C31.4126 16.9043 29.8259 16.6826 28.1473 16.5231ZM29.2484 21.9599C28.9574 21.6159 28.6592 21.2707 28.3538 20.9249C28.3593 21.2883 28.3621 21.654 28.3621 22.0219C28.3621 22.3472 28.36 22.6709 28.3556 22.9929C28.6604 22.6477 28.958 22.3032 29.2484 21.9599ZM27.2563 10.0094C27.5854 11.6349 27.8496 13.409 28.0371 15.2937C30.0193 15.4747 31.8855 15.7413 33.5922 16.0799C34.0802 15.3002 34.5144 14.5452 34.8914 13.8223C35.6026 12.4585 36.0904 11.2454 36.3606 10.2214C34.9213 9.93541 33.836 8.65936 33.836 7.12846C33.836 7.07744 33.8372 7.02671 33.8396 6.97628C32.7119 7.19911 31.3051 7.7329 29.6842 8.58718C28.9089 8.99578 28.0965 9.47133 27.2563 10.0094ZM6.0776 5.18955C5.01247 5.18955 4.149 6.05763 4.149 7.12846C4.149 8.1993 5.01247 9.06738 6.0776 9.06738C7.14274 9.06738 8.0062 8.1993 8.0062 7.12846C8.0062 6.05763 7.14274 5.18955 6.0776 5.18955ZM22.6139 28.7649C22.2717 29.0702 21.9302 29.3685 21.5898 29.6594C21.246 29.3655 20.901 29.0642 20.5553 28.7556C21.0016 28.7641 21.4516 28.7684 21.9047 28.7684C22.142 28.7684 22.3784 28.7673 22.6139 28.7649ZM30.8225 21.9599C32.0547 23.4658 33.1484 24.9478 34.0838 26.3679C35.1445 26.138 36.1319 25.8794 37.0339 25.5963C38.9503 24.9949 40.4133 24.304 41.371 23.5934C42.3526 22.8652 42.6019 22.277 42.6019 21.8946C42.6019 21.5121 42.3526 20.9239 41.371 20.1957C40.4133 19.4852 38.9503 18.7942 37.0339 18.1928C36.1532 17.9164 35.1911 17.6634 34.1588 17.4376C33.2071 18.8923 32.0878 20.4135 30.8225 21.9599ZM20.7052 15.0308C21.0007 14.7687 21.2957 14.5118 21.5898 14.2604C21.881 14.5093 22.173 14.7635 22.4655 15.0229C22.2791 15.0214 22.0922 15.0207 21.9047 15.0207C21.5022 15.0207 21.1023 15.0241 20.7052 15.0308ZM12.3572 21.9599C11.1278 20.4574 10.0362 18.9787 9.10226 17.5616C8.27598 17.7549 7.49832 17.966 6.77551 18.1928C4.85909 18.7942 3.39607 19.4851 2.43836 20.1957C1.45683 20.9239 1.20747 21.5121 1.20747 21.8946C1.20747 22.277 1.45683 22.8652 2.43836 23.5934C3.39607 24.304 4.85909 24.9949 6.77551 25.5963C7.52012 25.83 8.32294 26.047 9.17715 26.2449C10.0944 24.8624 11.1605 23.4224 12.3572 21.9599ZM35.0435 7.12846C35.0435 6.05763 35.9069 5.18955 36.9721 5.18955C38.0372 5.18955 38.9007 6.05763 38.9007 7.12846C38.9007 8.1993 38.0372 9.06738 36.9721 9.06738C35.9069 9.06738 35.0435 8.1993 35.0435 7.12846ZM21.5248 40.8319C20.4597 40.8319 19.5962 41.6999 19.5962 42.7708C19.5962 43.8416 20.4597 44.7097 21.5248 44.7097C22.59 44.7097 23.4534 43.8416 23.4534 42.7708C23.4534 41.6999 22.59 40.8319 21.5248 40.8319Z" fill="#303030"/>
</svg>
