<svg width="24" height="26" viewBox="0 0 24 26" fill="none" xmlns="http://www.w3.org/2000/svg">
<g clip-path="url(#clip0_249_734)">
<path d="M4.38226 0.895508C1.95468 0.895508 0 2.91655 0 5.42654V21.1793C0 23.6893 1.95468 25.7103 4.38226 25.7103H12.6398V16.0093H10.1588V12.5166H12.6398V9.53263C12.6398 7.18825 14.1057 5.03571 17.4825 5.03571C18.8497 5.03571 19.8608 5.17142 19.8608 5.17142L19.7813 8.43303C19.7813 8.43303 18.7501 8.42296 17.625 8.42296C16.4073 8.42296 16.212 9.00308 16.212 9.96614V12.5166H19.878L19.7183 16.0093H16.212V25.7104H19.6177C22.0453 25.7104 24 23.6893 24 21.1793V5.42657C24 2.91657 22.0453 0.895533 19.6177 0.895533H4.38223L4.38226 0.895508Z" fill="white"/>
</g>
<defs>
<clipPath id="clip0_249_734">
<rect width="24" height="24.8148" fill="white" transform="translate(0 0.895508)"/>
</clipPath>
</defs>
</svg>
