<svg width="24" height="24" viewBox="0 0 24 24" fill="none" xmlns="http://www.w3.org/2000/svg">
<g clip-path="url(#clip0_203_80)">
<g clip-path="url(#clip1_203_80)">
<path d="M11.9968 8.00108C9.79333 8.00108 7.99515 9.79926 7.99515 12.0027C7.99515 14.2062 9.79333 16.0043 11.9968 16.0043C14.2002 16.0043 15.9984 14.2062 15.9984 12.0027C15.9984 9.79926 14.2002 8.00108 11.9968 8.00108ZM23.9987 12.0027C23.9987 10.3456 24.0137 8.70354 23.9206 7.04945C23.8275 5.12819 23.3893 3.42307 21.9843 2.01815C20.5764 0.610221 18.8743 0.174935 16.953 0.0818738C15.2959 -0.0111873 13.6539 0.00382261 11.9998 0.00382261C10.3427 0.00382261 8.70061 -0.0111873 7.04652 0.0818738C5.12526 0.174935 3.42014 0.613223 2.01522 2.01815C0.607291 3.42607 0.172005 5.12819 0.0789442 7.04945C-0.014117 8.70654 0.000892919 10.3486 0.000892919 12.0027C0.000892919 13.6568 -0.014117 15.3019 0.0789442 16.956C0.172005 18.8772 0.610293 20.5823 2.01522 21.9873C3.42314 23.3952 5.12526 23.8305 7.04652 23.9235C8.70361 24.0166 10.3457 24.0016 11.9998 24.0016C13.6569 24.0016 15.2989 24.0166 16.953 23.9235C18.8743 23.8305 20.5794 23.3922 21.9843 21.9873C23.3923 20.5793 23.8275 18.8772 23.9206 16.956C24.0167 15.3019 23.9987 13.6598 23.9987 12.0027ZM11.9968 18.1597C8.58954 18.1597 5.83973 15.4099 5.83973 12.0027C5.83973 8.59547 8.58954 5.84566 11.9968 5.84566C15.404 5.84566 18.1538 8.59547 18.1538 12.0027C18.1538 15.4099 15.404 18.1597 11.9968 18.1597ZM18.406 7.03144C17.6105 7.03144 16.968 6.38902 16.968 5.59349C16.968 4.79797 17.6105 4.15555 18.406 4.15555C19.2015 4.15555 19.8439 4.79797 19.8439 5.59349C19.8442 5.78239 19.8071 5.96949 19.735 6.14405C19.6628 6.31862 19.5569 6.47723 19.4233 6.6108C19.2897 6.74438 19.1311 6.85029 18.9565 6.92247C18.782 6.99465 18.5949 7.03168 18.406 7.03144Z" fill="white"/>
</g>
</g>
<defs>
<clipPath id="clip0_203_80">
<rect width="24" height="24" fill="white"/>
</clipPath>
<clipPath id="clip1_203_80">
<rect width="24" height="24" fill="white"/>
</clipPath>
</defs>
</svg>
